<?xml version="1.0" encoding="UTF-8"?>
<svg id="Camada_1" data-name="Camada 1" xmlns="http://www.w3.org/2000/svg" viewBox="0 0 902.23 264.73">
  <path d="M794.99,224.39c-1.5-14.91,1-29.03,9.36-41.65,7.43-11.22,17.51-17.63,31.96-15.53-.72-.98-1.33-1.7-1.83-2.5-2.27-3.6-4.84-7.05-6.68-10.85-4.29-8.85-5.15-18.43-4.66-28.08.95-18.87,5.79-35.94,23.52-46.95-4.7-.48-9.08-1.07-13.48-1.34-22.2-1.36-44.27-.89-66.33,2.69-13.45,2.18-22.02,9.36-27.1,21.3-5.88,13.83-6.65,28.15-2.75,42.65,2.41,8.96,6.85,16.79,14.41,23.65-4.01.36-7.15.79-10.3.9-12.07.39-20.29,6.62-25.95,16.84-4.68,8.45-7.08,17.51-7.83,27.11-1.07,13.81,1.73,26.59,9.99,37.88,3.38,4.61,7.49,8.73,13.31,9.75,9.71,1.71,19.48,3.52,29.3,4.06,12.84.71,25.75.34,38.63.18,5.45-.07,10.9-.78,14.94-1.09-1.76-2.2-3.89-4.95-6.1-7.63-7.53-9.13-11.25-19.76-12.42-31.38ZM899.19,196.57c-1.98-6.16-5.23-11.69-10.78-15.45-5.89-3.99-13.72-3.53-18.4,1.07,6.02.09,9.96,3.49,12.37,8.37,8.65,17.51,7.96,34.94-1.54,51.9-2.62,4.68-6.7,7.98-12.73,8,4.93,4.69,12.52,5.05,18.62.99,4.31-2.86,7.4-6.83,9.63-11.43,6.83-14.08,7.61-28.64,2.84-43.45ZM843.9,184.73c-6.28-7.22-15.15-8.35-22.8-2.68,6.52.92,10.37,3.37,13.2,9.41,7.87,16.8,7.23,33.54-1.39,49.89-2.75,5.23-6.94,8.99-13.56,9.17,5.4,4.54,12.38,4.94,18.3,1.22,4.75-2.99,7.93-7.34,10.38-12.26,4.9-9.82,6.19-20.33,5.14-31.08-.84-8.68-3.37-16.88-9.27-23.67ZM879.7,121.9c-.25-8.67-2.08-16.9-6.74-24.31-2.69-4.27-6.13-7.74-11.13-9.31-4.94-1.55-10.94-.29-13.49,2.86,6.01,1.68,7.9,2.82,10.77,7.08,1.28,1.91,2.38,3.99,3.26,6.12,3.34,8.05,4.09,16.53,3.31,25.09-.77,8.47-2.82,16.62-8.05,23.6-2.89,3.85-6.45,6.72-12.13,6.57,5.61,4.54,12.16,5.03,17.99,1.63,4.23-2.46,7.24-6.09,9.61-10.28,5.11-9.02,6.89-18.8,6.59-29.06ZM825.77,236.06c1.16-2.03,1.67-4.43,2.45-6.62-.72-2.24-1.06-4.28-1.99-6.02-1.21-2.26-3.31-2.25-4.93-.28-2.48,3.03-2.69,9.79-.41,12.93,1.53,2.1,3.58,2.27,4.88,0ZM847.91,143.83c1.38,2.14,3.57,2.33,4.82.13,1.05-1.86,1.5-4.06,2.2-6.04-.6-2.03-.89-3.87-1.68-5.46-1.23-2.45-3.37-2.45-4.97-.23-1.99,2.77-2.18,8.8-.37,11.6ZM874.84,235c1.14-1.89,1.64-4.17,2.35-6.11-.61-2.18-.86-4.02-1.63-5.62-1.12-2.35-3.17-2.46-4.78-.49-2.22,2.72-2.41,9.17-.36,12.05,1.36,1.9,3.23,2.15,4.42.17Z"/>
  <g>
    <path d="M59.33,62.33l.76-.21c10.05-2.77,15.24-4.14,25.09-6.61-1.7-6.82-2.67-10.65-4.37-17.47-2.78.7-5.19,1.3-7.44,1.88-.49-1.95-1-4.01-1.61-6.46-10.03,2.51-15.29,3.9-25.51,6.72-8.41,2.32-12.59,3.52-20.96,6.01-10.18,3.03-15.39,4.64-25.28,7.85,2.17,6.68,3.39,10.44,5.56,17.12,2.55-.82,4.77-1.54,6.86-2.2.66,2.05,1.36,4.19,2.2,6.78,7.44-2.41,12.22-3.91,18.54-5.82,6.79,22.83,13.58,45.66,20.37,68.48,2.7-.8,4.94-1.46,7.08-2.08.66,2.22,1.32,4.43,1.98,6.65,6.87-2.04,10.74-3.15,17.63-5.06-6.89-24.95-13.78-49.89-20.68-74.84l-.21-.76ZM16.09,72.85l-1.48-4.57c4.93-1.55,9.36-2.9,15.8-4.82l.75-.22.22.75c.37,1.24.74,2.48,1.11,3.73-5.6,1.69-10.04,3.08-16.41,5.13ZM64.14,140.13l-1.32-4.43c2.53-.72,5.1-1.44,8.34-2.34-6.89-24.95-13.78-49.89-20.68-74.84l-.21-.76.76-.21c10.05-2.77,15.24-4.14,25.09-6.61-.86-3.43-1.53-6.1-2.2-8.78,1.64-.42,3.34-.85,5.21-1.32l1.63,6.52,1.62,6.48c-8.52,2.15-13.63,3.5-22.9,6.06l-.76.21-2.22.61.61,2.22.21.76,20.07,72.63c-4.94,1.38-8.46,2.39-13.25,3.8Z"/>
    <path d="M145.36,28.12h0c-.91-1.18-1.49-1.94-2.22-2.87-.31,1.11-.56,2.01-.96,3.4h0c-.19.72-.37,1.44-.56,2.15-1.78-2.42-3.53-4.85-5.33-7.26h0c-.91-1.18-1.49-1.94-2.22-2.87-.31,1.11-.56,2.01-.96,3.4h0c-8.86,32.92-16.66,65.99-23.41,99.4.94-.22,1.7-.4,2.87-.67,3.12-.72,5.26-1.21,7.66-1.75-.48,2.33-1,4.66-1.47,7,.94-.22,1.7-.4,2.87-.67,4.98-1.16,7.48-1.72,12.47-2.81h.01s.77-.17.77-.17c1.14-.24,1.81-.39,2.81-.61,1.25-5.66,1.93-8.69,3.27-14.5l.16-.78.1-.5.51-.11c9.45-1.98,18.95-3.79,28.47-5.48,1.7,2.5,3.19,4.72,5.28,7.85,1.01-.17,1.68-.28,2.82-.46l.84-.14c.61-.1,1.18-.19,1.73-.28,1.11,1.65,2.24,3.33,3.66,5.46,1.01-.17,1.68-.28,2.82-.46l.84-.14c5.03-.82,7.55-1.21,12.59-1.97,1.19-.18,1.95-.29,2.9-.43-18.56-28.56-37.98-56.41-58.35-83.7ZM141.26,105.64l-.51.11-1.48.32-.29,1.48-.1.5-.14.71c-1.23,5.31-1.9,8.3-2.96,13.09l-1.37.3-.77.17-.27.06h0c-4.62,1.02-7.11,1.58-11.62,2.62.3-1.49.64-2.99.95-4.48.74-.16,1.5-.33,2.36-.52h.01s.77-.17.77-.17c1.14-.24,1.81-.39,2.81-.61,1.25-5.66,1.93-8.69,3.27-14.5h0s.16-.78.16-.78l.1-.5.51-.11c11.04-2.32,22.14-4.43,33.26-6.35l.49-.08.7,1.02c.61.9,1.13,1.66,1.66,2.43-9.24,1.65-18.48,3.41-27.54,5.32ZM154.26,79.62l.71,1-1.21.22c-2.43.44-4.38.81-6.23,1.15.75-2.99,1.42-5.59,2.22-8.71,1.35,1.88,2.75,3.85,4.51,6.32ZM145.04,82.48c-2.09.4-4.24.82-7.01,1.37l-1.21.24.29-1.2c1.82-7.35,2.76-11.04,4.69-18.39l.42-1.6.97,1.33c1.9,2.6,3.39,4.65,4.82,6.63-1.15,4.39-1.96,7.57-2.97,11.61ZM187.84,111.95l-.83.14-1.37.22c-.82-1.23-1.54-2.31-2.24-3.35,2.67-.43,4.94-.77,8.35-1.29,1.19-.18,1.95-.29,2.9-.43-16.39-25.21-33.48-49.85-51.27-74.06.25-.95.49-1.92.75-2.87,19.32,25.93,38.04,52.74,55.69,79.75-4.63.7-7.15,1.09-11.98,1.88Z"/>
    <path d="M287.12,69.45c-.42-6.89-2.77-12.94-7.18-18.2-4.25-5.09-9.52-8.64-15.77-10.73-.43-.3-.85-.6-1.29-.88l.09-.33c.49-1.86.73-3.74.73-5.64,0-.61-.03-1.22-.08-1.84-.53-6.51-3.44-11.8-8.94-16.02-2.72-2.07-5.66-3.47-8.78-4.34-.1-.08-.18-.16-.28-.24-4.68-3.57-9.95-5.36-15.85-5.36-1.05,0-2.11.05-3.2.17-10.47,1.1-15.84,1.73-26.03,3.05,1.19,9.2,1.82,14.07,3.05,23.52.25,1.93.38,2.9.63,4.83,1.01,7.79,1.52,11.68,2.53,19.48.76,5.84,1.13,8.75,1.89,14.59,1.44,11.07,2.87,22.15,4.31,33.23,2.77-.36,5.56-.67,8.33-1.01.24,1.86.48,3.72.72,5.59,11.14-1.45,22.32-2.71,33.51-3.76,9.27-.89,16.84-4.75,23.05-11.8,5.71-6.47,8.61-13.76,8.61-22.05,0-.74-.03-1.49-.07-2.24ZM231.59,29.95l-.09-.78.78-.08c1.12-.12,1.95-.21,2.79-.3.01.08.05.14.05.22l.05.86c0,1.51-.47,2.83-1.45,3.77-.45.43-1.01.74-1.62,1-.2-1.81-.3-2.8-.51-4.67ZM222.53,25.38l-.09-.78.78-.08c2.1-.23,3.14-.34,5.24-.56l1.11-.06c1.57,0,2.91.41,3.89,1.32.4.37.67.84.92,1.34-.69.08-1.41.15-2.35.26l-.78.08-2.31.25.26,2.3.09.78.41,3.73.13,1.16v.09c-.06,0-.11.04-.18.04l-.08-.78.08.78c-2.07.21-3.11.33-5.18.55l-.78.08-.08-.77c-.21-1.94-.32-2.9-.53-4.83-.21-1.97-.32-2.94-.54-4.89ZM226.45,53.76c2.04-.22,3.06-.33,5.1-.55,4.11-.43,6.16-.64,10.27-1.03.59-.06,1.17-.08,1.75-.08,2.98,0,5.74.8,8.23,2.31-.38.02-.76.02-1.14.05-4.12.39-6.18.6-10.29,1.03-2.04.22-3.07.33-5.1.55l-.78.08-2.31.25.26,2.3.09.77.76,6.92.85,7.71.84,7.67.24,2.19c-1.6.17-3.31.35-5.39.58l-.78.08-.08-.78c-.64-5.83-.96-8.74-1.61-14.56-.64-5.85-.96-8.78-1.61-14.62l-.09-.78.78-.08ZM236.42,73.82c-.64-5.85-.96-8.78-1.61-14.62l-.09-.78.78-.08c2.04-.22,3.06-.33,5.1-.55,4.11-.43,6.16-.64,10.27-1.03.59-.06,1.17-.08,1.75-.08,0,0,.02,0,.02,0,.76,0,1.5.08,2.23.18,2.59,2.55,4.13,5.69,4.42,9.35l.05,1.33c0,3.7-1.31,7.06-3.83,9.95-2.82,3.24-6.45,5.08-10.76,5.49-2.89.28-5.08.49-7.24.71-.35-3.18-.64-5.83-1.09-9.87ZM261.33,32.01c.05.55.07,1.09.07,1.64,0,1.6-.21,3.2-.6,4.79-2.01-1.09-4.09-2.06-6.36-2.77l-.71-.22.19-.73c.49-1.86.73-3.74.73-5.64,0-.61-.03-1.22-.08-1.84-.36-4.48-1.89-8.38-4.58-11.76,1.13.61,2.23,1.32,3.3,2.14,4.93,3.79,7.57,8.49,8.04,14.39ZM276.85,92.21c-5.81,6.59-12.86,10.2-21.54,11.03-10.3.96-20.82,2.13-31.3,3.47l-.43-3.28c7.62-.91,15.25-1.75,22.89-2.47,9.27-.89,16.84-4.75,23.05-11.8,5.71-6.47,8.61-13.76,8.61-22.05,0-.74-.03-1.49-.07-2.24-.42-6.89-2.77-12.94-7.18-18.2-.27-.33-.59-.59-.87-.91,3.04,1.84,5.79,4.13,8.16,6.96,4.07,4.87,6.24,10.39,6.64,16.87.04.71.07,1.41.07,2.09,0,7.68-2.63,14.4-8.04,20.53Z"/>
    <path d="M352.12,22.51c5.78,0,11.56.05,17.34.14.11-7.02.18-10.98.29-18-3.04-.03-6.09-.04-9.13-.05.02-1.4.05-2.87.08-4.53-4.55-.04-9.11-.07-13.66-.07-16.48,0-32.93.29-49.41.86.53,12.79,1.06,25.59,1.59,38.39.32,7.82.49,11.74.82,19.56.53,12.8,1.07,25.6,1.59,38.4,3.45-.14,6.16-.24,8.85-.33.07,1.63.14,3.27.2,4.9,7.35-.3,11.33-.42,18.94-.6h0c8.07-.13,16.13-.19,24.19-.19,4.78,0,9.57.03,14.35.07.12-7.05.18-11.02.3-18.07-3.04-.05-6.09-.05-9.13-.08.02-1.39.05-2.85.07-4.5-5.43-.09-10.87-.13-16.3-.13-4.93,0-9.85.09-14.78.16-.12-5.45-.21-9.27-.35-15.68l-.02-.78.78-.02c8.7-.19,14.31-.27,21.23-.27,2.61,0,5.42,0,8.62.03.05-7.03.07-10.98.12-18.01-3.27-.02-6.14-.04-8.79-.04-.1,0-.2,0-.3,0,0-1.4.02-2.88.03-4.54-3.27-.02-6.14-.04-8.79-.04-4.61,0-8.67.04-13.41.12-.12-5.44-.21-9.26-.35-15.67l-.02-.78.78-.02c8.07-.18,16.15-.27,24.23-.27ZM366.13,85.27l-.12,7.23-.1,6.24c-4.03-.03-8.06-.05-12.09-.05-8.02,0-16.17.06-24.25.19-6.78.15-10.76.27-16.68.5l-.11-2.58c2.32-.07,4.76-.13,7.78-.2h0c8.07-.13,16.13-.19,24.19-.19,4.78,0,9.57.03,14.35.07.07-4.47.13-7.71.19-11.27,2.28.02,4.55.02,6.83.05ZM349.93,46c2.01,0,4.14,0,6.47.02l-.04,6.68-.04,6.72c-2.28-.01-4.37-.02-6.34-.02-6.66,0-12.23.07-21.27.27l-.78.02-2.3.05.05,2.3.02.79.21,9.44.14,6.22c-1.96.03-3.91.02-5.87.07l-.78.02-.02-.78c-.17-7.83-.26-11.75-.43-19.57l-.02-.78.78-.02c8.7-.19,14.31-.27,21.23-.27,2.61,0,5.42,0,8.62.03.03-4.43.05-7.64.07-11.16.11,0,.21,0,.31,0ZM327.06,20.49l-2.3.05.05,2.3.02.79.22,9.81.13,5.84c-1.82.03-3.75.08-5.87.12l-.78.02-.02-.78c-.17-7.86-.26-11.78-.43-19.64l-.02-.78.78-.02c8.07-.18,16.15-.27,24.23-.27,5.78,0,11.56.05,17.34.14.07-4.43.12-7.64.18-11.17,2.28,0,4.55.01,6.83.03l-.22,13.38c-5.14-.07-10.2-.11-15.08-.11-8.05,0-16.22.09-24.28.27l-.78.02Z"/>
    <path d="M456.6,62.34c4.81-5.25,7.61-11.35,8.37-18.45.13-1.21.19-2.4.19-3.57,0-7.71-2.74-14.68-8.41-20.99-4.3-4.75-9.4-8.09-15.28-10.05-5.4-3.8-11.7-6.01-18.93-6.53-6.43-.46-9.65-.66-16.09-1.03-8.36-.48-12.67-.68-20.79-.99-.41,11.17-.83,22.33-1.25,33.49-.43,11.42-.85,22.84-1.28,34.26-.43,11.49-.65,17.39-1.07,28.62,3.6.14,6.4.25,9.22.39-.05,1.32-.1,2.7-.16,4.19,7.08.27,11.07.46,18.15.86.54-9.49,1.08-18.97,1.62-28.46,5.31,8.51,10.55,17.06,15.63,25.71,2.48.2,4.63.38,6.65.56.8,1.34,1.62,2.67,2.41,4.02,8.81.72,13.6,1.17,22.06,2.05-6.13-10.85-12.36-21.6-18.73-32.32l-.53-.89,1-.27c6.71-1.83,12.43-5.33,17.25-10.58ZM431.98,25.55c.21.21.46.38.66.61,2.66,2.92,4.01,6.28,4.01,9.95l-.06,1.36c-.35,4.24-2.31,7.8-5.73,10.52-3.05,2.45-6.56,3.69-10.44,3.69l-1.37-.05c-2.72-.19-4.83-.34-6.88-.47.22-3.93.38-6.77.65-11.46.33-5.88.5-8.82.84-14.69l.05-.78.78.04c6.33.36,9.5.56,15.84,1.01.58.04,1.11.18,1.66.27ZM402.93,49.82c.33-5.87.5-8.82.83-14.69.33-5.88.5-8.82.84-14.69l.05-.78.78.04c6.33.36,9.5.56,15.84,1.01,2.63.19,5,.94,7.13,2.13-5.03-.35-8.17-.55-13.78-.86l-.78-.04-2.28-.12-.14,2.28-.05.79-.48,8.45-.36,6.24-.65,11.44c-1.84-.11-3.78-.23-6.2-.37l-.78-.05.04-.78ZM407.08,100.11c-4.89-.27-8.5-.44-13.59-.64l.07-1.86c2.01.1,4.12.22,6.63.36.66-11.68,1.32-23.36,1.99-35.04l.14-2.41,1.31,2.03c1.74,2.7,3.41,5.44,5.12,8.16l-1.67,29.4ZM437.75,70.98l-2.92.8,1.55,2.6.53.89c5.55,9.33,11.09,18.86,16.51,28.39-5.62-.57-9.94-.96-16.47-1.5-.31-.52-.63-1.04-.94-1.56,3.95.36,7.64.72,12.56,1.24-6.13-10.85-12.36-21.6-18.73-32.32l-.53-.89,1-.27c6.71-1.83,12.43-5.33,17.25-10.58,4.81-5.25,7.61-11.35,8.37-18.45.13-1.21.19-2.4.19-3.57,0-7.71-2.74-14.68-8.41-20.99-.04-.04-.07-.07-.11-.11,2.72,1.67,5.21,3.75,7.45,6.23,5.26,5.85,7.82,12.21,7.82,19.45,0,1.09-.06,2.21-.18,3.33-.7,6.58-3.24,12.18-7.77,17.13-4.53,4.94-9.82,8.19-16.15,9.92l-1,.27Z"/>
    <path d="M577.25,27.44c-3.76-.78-6.69-1.37-9.6-1.95.18-.88.36-1.75.54-2.63-7.74-1.6-11.99-2.44-19.75-3.89-3.01,16.09-6.01,32.19-9.01,48.28-14.87-18.07-30.19-35.67-46.1-52.88-.2,1.58-.4,3.15-.6,4.73-2.81-3.1-5.61-6.22-8.46-9.3-4.01,31.59-8.02,63.18-12.03,94.76,3.72.47,6.58.85,9.48,1.25-.14,1.11-.28,2.22-.42,3.33,7.04.9,11.01,1.44,18.04,2.47,2.38-16.25,4.77-32.49,7.15-48.73,14.64,17.44,28.75,35.22,42.36,53.5.4-1.93.8-3.87,1.2-5.8,2.63,3.45,5.27,6.89,7.86,10.37,6.45-31.17,12.89-62.35,19.34-93.52ZM495,19.59c15.17,16.55,29.86,33.53,43.89,50.63-.04.22-.08.44-.12.65l-.31,1.67-1.07-1.33c-13.76-17.05-27.96-33.62-42.61-49.86l.22-1.76ZM500.59,87.22l-3.2,21.79c-5.17-.75-8.68-1.23-13.52-1.85l.13-1.01c1.9.27,3.91.56,6.27.9,2.56-17.43,5.12-34.85,7.67-52.28l.25-1.7,1.12,1.31c1.75,2.04,3.45,4.11,5.18,6.16l-3.92,26.69ZM550.67,107.6c5.5-26.61,11.01-53.23,16.51-79.85,2.3.45,4.61.92,7.34,1.48l-10.28,49.72-7.55,36.52c-1.98-2.64-4.01-5.25-6.02-7.88Z"/>
    <path d="M649.31,49.16h0c-.3-1.46-.49-2.4-.73-3.57-.77.86-1.4,1.56-2.37,2.63h0c-1.48,1.68-2.93,3.39-4.4,5.08-.53-2.9-1.02-5.81-1.56-8.72h0c-.3-1.46-.49-2.4-.73-3.57-.77.86-1.4,1.56-2.37,2.63h0c-22.55,25.58-44.2,51.79-65.03,78.78.94.21,1.69.39,2.87.66,3.18.75,5.36,1.26,7.81,1.85-.53.69-1.08,1.37-1.61,2.06.94.21,1.69.39,2.87.66,4.98,1.17,7.47,1.76,12.44,2.99l.77.2c1.13.28,1.8.45,2.79.7,3.63-4.53,5.59-6.95,9.39-11.58l.47-.61.31-.41.5.13c8.2,2.1,16.37,4.36,24.52,6.69.78,5.39,1.21,8.47,1.94,13.95.98.3,1.65.5,2.77.84l.83.25c2.05.63,3.66,1.13,5.21,1.61.08.6.16,1.22.25,1.88.98.3,1.64.49,2.77.84l.83.25c4.91,1.51,7.36,2.27,12.26,3.83,1.16.37,1.9.61,2.83.91-4.14-33.85-9.34-67.44-15.61-100.97ZM585.22,125.54c.69.17,1.41.34,2.2.54l.77.2s.06.01.1.02c-.95-.22-1.96-.46-3.1-.73,0-.01.02-.02.03-.03ZM631.59,102.82l.2,1.22-1.19-.34c-2.41-.69-4.35-1.23-6.19-1.75,2.29-2.7,4.08-4.81,5.9-6.93.39,2.32.79,4.74,1.28,7.79ZM621.98,101.25l-.02.03c-2.04-.56-4.16-1.13-6.87-1.86l-1.19-.32.79-.95c4.9-5.79,7.37-8.68,12.37-14.41l1.08-1.24.29,1.62c.55,3.12.98,5.59,1.38,7.96-2.42,2.81-4.59,5.35-7.82,9.17ZM608.08,117.96l-.42.55c-3.47,4.23-5.41,6.62-8.48,10.45l-1.34-.34-.8-.2c-2.4-.59-4.22-1.03-6.02-1.47,3.62-4.51,5.58-6.93,9.37-11.55l.47-.61.31-.41.5.13c2.51.64,5.01,1.34,7.52,2l-.8,1.05-.31.4ZM655.76,144.8c-3.64-29.69-8.15-59.18-13.43-88.6,1.64-1.88,3.25-3.78,4.89-5.65,5.94,31.88,10.98,64.25,14.97,96.27-2.53-.81-4.43-1.4-6.43-2.03Z"/>
    <path d="M120.63,217.66c-3.01-3.89-6.37-6.96-10.1-9.24-2.94-1.8-5.76-3.17-8.45-4.16-.2-.13-.4-.29-.6-.41-3.77-2.3-7.34-3.94-10.71-4.92-2.36-.69-4.04-1.19-5.16-1.54-3.06-2.14-4.7-5.3-4.68-9.23,0-3.21,1.17-6.03,3.45-8.33,2.26-2.3,5.1-3.48,8.33-3.48.01,0,.03,0,.04,0h.02c.07,0,.13.02.19.02,1.5,1.87,2.36,4.04,2.51,6.44h7.77c.73,1.41,1.19,2.93,1.29,4.57h20.49c-.19-8.56-3.3-15.85-9.47-22.02-3.95-3.94-8.35-6.64-13.25-8.13-5.42-3.95-11.59-5.94-18.62-5.95-8.94,0-16.52,3.15-22.87,9.5-6.35,6.36-9.49,13.91-9.5,22.81,0,5.9,1.45,10.75,4.3,14.64,2.92,3.98,6.2,7.17,9.84,9.58,3.56,2.36,6.91,4.08,10.06,5.2,3.3,2.11,6.44,3.69,9.37,4.7,3.31,1.14,5.31,1.83,5.99,2.06h.02s.01.01.01.01c.52.2,1.28.48,2.17.81,1.57,1.8,2.46,4.19,2.44,7.2.01,3.24-1.18,6.09-3.48,8.37-2.3,2.28-5.13,3.45-8.33,3.44-.1,0-.18-.02-.28-.03-1.46-1.86-2.31-4.02-2.45-6.43h-7.8c-.72-1.4-1.16-2.93-1.25-4.57h-20.56c.19,8.6,3.3,15.92,9.46,22.1,3.93,3.92,8.33,6.62,13.22,8.11,5.44,3.96,11.64,5.96,18.71,5.96,8.9,0,16.45-3.15,22.81-9.5,6.35-6.36,9.49-13.93,9.5-22.88,0-6.04-1.5-10.9-4.43-14.69ZM82.75,178.21c-2.7,2.72-4.12,6.16-4.12,9.94-.01,2.67.69,5.07,1.93,7.15-1.07-.58-2.23-1.26-3.56-2.11-3.38-2.14-5.15-5.46-5.12-9.6,0-3.21,1.17-6.04,3.45-8.33,2.27-2.31,5.12-3.49,8.37-3.48,2.66,0,5.05.86,7.1,2.45-3.06.41-5.82,1.72-8.04,3.98ZM122.59,185.08h-16.06c-.17-.78-.43-1.54-.74-2.27h10.17c-.17-7.92-2.89-14.75-8.18-20.61,2.15,1.29,4.2,2.87,6.14,4.8,5.17,5.17,8.02,11.11,8.66,18.09ZM78.96,235.44c.27,1.28.73,2.49,1.34,3.63-1.85-.54-3.54-1.48-4.98-2.93-.22-.22-.39-.47-.59-.7h4.23ZM113.93,253.6c-5.94,5.93-12.87,8.82-21.18,8.82-4.36,0-8.33-.81-11.98-2.4.96.08,1.93.13,2.92.13,8.9,0,16.45-3.15,22.81-9.5,6.35-6.36,9.49-13.93,9.5-22.88,0-6.04-1.5-10.9-4.43-14.69-.74-.96-1.5-1.86-2.28-2.72.01,0,.03.02.04.02,3.48,2.13,6.67,5.05,9.48,8.68,2.65,3.42,3.94,7.77,3.95,13.28-.01,8.36-2.9,15.31-8.83,21.25Z"/>
    <path d="M198.63,160.61h0s-1.68-3.65-1.68-3.65l-1.62,3.58-1.87,4.16-3.9-8.66h0s-1.68-3.65-1.68-3.65l-1.62,3.58-46.77,104.19h11.11l-2.05,4.57h21.84l6.92-15.3h0s.33-.79.33-.79l.2-.49h31.29l5.35,12h7.02l2.04,4.57h21.92l-46.84-104.12ZM177.86,245.85h-1.53l-.59,1.41-.21.49-.3.73-6.31,13.94h-16.8l1.02-2.27h8.21l6.92-15.3h0s.33-.79.33-.79l.2-.49h38.3l.55,1.21h0s.47,1.06.47,1.06h-30.26ZM197.8,223.09h-8.64l4.33-9.63,4.3,9.63ZM186.64,223.09h-8.59l9.91-22.02,4.28,9.58-5.6,12.45ZM227.77,262.42h-2.72l-1.01-2.27h12.38l-41.68-92.65,2.23-4.98,44.94,99.89h-14.13Z"/>
    <path d="M321.51,244.17v-4.57h-35.06v-83.73h-9.06v-4.57h-20.56v108.87h9.06v4.57h64.68v-20.56h-9.06ZM284.15,158.17v81.43h-6.75v-81.43h6.75ZM328.27,262.42h-60.07v-2.27h53.31v-13.68h6.75v15.95Z"/>
    <path d="M448.97,171.87c-5.71-5.71-12.03-9.84-18.94-12.49-8.44-5.36-17.92-8.09-28.53-8.09-15.02.01-27.79,5.32-38.46,16.01-10.66,10.7-15.97,23.45-15.97,38.43,0,15.02,5.31,27.78,15.97,38.46,5.69,5.68,11.99,9.8,18.89,12.44,8.45,5.37,17.96,8.1,28.63,8.1,14.97,0,27.73-5.3,38.42-15.97,10.69-10.67,16-23.44,16.01-38.46-.01-14.98-5.32-27.73-16.01-38.43ZM386.6,234.24c-6.6-6.58-9.94-14.63-9.93-23.95,0-9.28,3.33-17.32,9.93-23.95,6.57-6.64,14.6-9.99,23.91-9.99.01,0,.03,0,.04,0h.02c3.63,0,7.06.53,10.3,1.55,1.59,1.14,3.12,2.41,4.57,3.86,6.65,6.64,10,14.67,9.99,23.95,0,9.32-3.35,17.37-9.99,23.95-6.63,6.6-14.67,9.93-23.95,9.93-3.68,0-7.15-.54-10.42-1.57-1.55-1.12-3.06-2.36-4.48-3.78ZM410.51,174.05c-9.93,0-18.53,3.59-25.54,10.67-7.04,7.08-10.6,15.68-10.6,25.57-.01,9.41,3.22,17.6,9.53,24.41-2.24-1.39-4.37-3.05-6.36-5.03-6.6-6.58-9.94-14.63-9.93-23.95,0-9.28,3.33-17.32,9.93-23.95,6.58-6.65,14.63-10,23.95-9.99,4.59,0,8.88.82,12.85,2.46-1.26-.12-2.53-.19-3.84-.19ZM447.34,247.13c-10.31,10.29-22.35,15.29-36.79,15.3-6.32,0-12.15-1.02-17.6-2.94,2.77.41,5.6.67,8.54.67,14.97,0,27.73-5.3,38.42-15.97,10.69-10.67,16-23.44,16.01-38.46-.01-14.98-5.32-27.73-16.01-38.43-.11-.11-.24-.21-.35-.32,2.7,1.87,5.29,4.04,7.78,6.52,10.31,10.32,15.32,22.36,15.33,36.8-.01,14.49-5.03,26.54-15.33,36.83Z"/>
    <path d="M498.53,155.86v-4.57h-20.56v108.87h9.06v4.57h20.56v-108.87h-9.06ZM505.28,262.43h-15.95v-2.27h9.2v-101.99h6.75v104.26Z"/>
    <path d="M583.76,160.61h0s-1.68-3.65-1.68-3.65l-1.62,3.58-1.87,4.16-3.9-8.66h0s-1.68-3.65-1.68-3.65l-1.62,3.58-46.77,104.19h11.11l-2.05,4.57h21.84l6.92-15.3h0s.33-.79.33-.79l.2-.49h31.29l5.35,12h7.02l2.04,4.57h21.92l-46.84-104.12ZM562.99,245.85h-1.53l-.59,1.41-.21.5-.3.73-6.31,13.94h-16.8l1.02-2.27h8.21l6.92-15.3h0s.33-.79.33-.79l.2-.49h38.3l.55,1.21h0s.47,1.06.47,1.06h-30.26ZM582.93,223.09h-8.64l4.33-9.63,4.3,9.63ZM571.77,223.09h-8.59l9.91-22.02,4.28,9.58-5.6,12.44ZM612.91,262.42h-2.72l-1.01-2.27h12.38l-41.68-92.65,2.23-4.98,44.94,99.89h-14.13Z"/>
  </g>
</svg>